<mxfile host="Electron" agent="Mozilla/5.0 (Windows NT 10.0; Win64; x64) AppleWebKit/537.36 (KHTML, like Gecko) draw.io/25.0.2 Chrome/128.0.6613.186 Electron/32.2.5 Safari/537.36" version="25.0.2">
  <diagram name="Page-1" id="gLhEkjS78GMVC5pyKy-v">
    <mxGraphModel dx="798" dy="237" grid="1" gridSize="10" guides="1" tooltips="1" connect="1" arrows="1" fold="1" page="0" pageScale="1" pageWidth="827" pageHeight="1169" background="#ffffff" math="0" shadow="0">
      <root>
        <mxCell id="0" />
        <mxCell id="1" parent="0" />
        <mxCell id="1kB6OxGuHtjADMAQv413-17" value="" style="verticalLabelPosition=bottom;shadow=0;dashed=0;align=center;html=1;verticalAlign=top;shape=mxgraph.electrical.logic_gates.logic_gate;operation=or;rotation=90;" vertex="1" parent="1">
          <mxGeometry x="54.99" y="278.03" width="35.98" height="20" as="geometry" />
        </mxCell>
        <mxCell id="1kB6OxGuHtjADMAQv413-28" style="edgeStyle=orthogonalEdgeStyle;rounded=0;orthogonalLoop=1;jettySize=auto;html=1;exitX=1;exitY=0.5;exitDx=0;exitDy=0;exitPerimeter=0;entryX=1;entryY=0.5;entryDx=0;entryDy=0;" edge="1" parent="1" source="1kB6OxGuHtjADMAQv413-18" target="1kB6OxGuHtjADMAQv413-25">
          <mxGeometry relative="1" as="geometry" />
        </mxCell>
        <mxCell id="1kB6OxGuHtjADMAQv413-18" value="" style="verticalLabelPosition=bottom;shadow=0;dashed=0;align=center;html=1;verticalAlign=top;shape=mxgraph.electrical.logic_gates.logic_gate;operation=and;rotation=90;" vertex="1" parent="1">
          <mxGeometry x="30.12" y="277.13" width="33.75" height="20" as="geometry" />
        </mxCell>
        <mxCell id="1kB6OxGuHtjADMAQv413-21" value="" style="swimlane;startSize=0;" vertex="1" parent="1">
          <mxGeometry x="32" y="250" width="110.99000000000001" height="80" as="geometry" />
        </mxCell>
        <mxCell id="1kB6OxGuHtjADMAQv413-50" value="&lt;font style=&quot;font-size: 7px;&quot; face=&quot;Times New Roman&quot;&gt;&lt;font style=&quot;&quot;&gt;b&lt;/font&gt;&lt;font style=&quot;&quot;&gt;&lt;sub&gt;&lt;i style=&quot;&quot;&gt;l&lt;/i&gt;-1&lt;/sub&gt;&lt;/font&gt;&lt;/font&gt;" style="text;html=1;align=center;verticalAlign=middle;whiteSpace=wrap;rounded=0;" vertex="1" parent="1kB6OxGuHtjADMAQv413-21">
          <mxGeometry x="42.5" y="8" width="15" height="10" as="geometry" />
        </mxCell>
        <mxCell id="1kB6OxGuHtjADMAQv413-51" value="&lt;font style=&quot;font-size: 7px;&quot; face=&quot;Times New Roman&quot;&gt;&lt;font style=&quot;&quot;&gt;a&lt;/font&gt;&lt;font style=&quot;&quot;&gt;&lt;sub&gt;&lt;i style=&quot;&quot;&gt;l&lt;/i&gt;-1&lt;/sub&gt;&lt;/font&gt;&lt;/font&gt;" style="text;html=1;align=center;verticalAlign=middle;whiteSpace=wrap;rounded=0;" vertex="1" parent="1kB6OxGuHtjADMAQv413-21">
          <mxGeometry x="27.5" y="8" width="15" height="10" as="geometry" />
        </mxCell>
        <mxCell id="1kB6OxGuHtjADMAQv413-52" value="&lt;font style=&quot;font-size: 7px;&quot; face=&quot;Times New Roman&quot;&gt;&lt;font style=&quot;&quot;&gt;b&lt;/font&gt;&lt;font style=&quot;&quot;&gt;&lt;sub&gt;&lt;i style=&quot;&quot;&gt;l&lt;/i&gt;-1&lt;/sub&gt;&lt;/font&gt;&lt;/font&gt;" style="text;html=1;align=center;verticalAlign=middle;whiteSpace=wrap;rounded=0;" vertex="1" parent="1kB6OxGuHtjADMAQv413-21">
          <mxGeometry x="14.5" y="8" width="15" height="10" as="geometry" />
        </mxCell>
        <mxCell id="1kB6OxGuHtjADMAQv413-53" value="&lt;font style=&quot;font-size: 7px;&quot; face=&quot;Times New Roman&quot;&gt;&lt;font style=&quot;&quot;&gt;a&lt;/font&gt;&lt;font style=&quot;&quot;&gt;&lt;sub&gt;&lt;i style=&quot;&quot;&gt;l&lt;/i&gt;-1&lt;/sub&gt;&lt;/font&gt;&lt;/font&gt;" style="text;html=1;align=center;verticalAlign=middle;whiteSpace=wrap;rounded=0;" vertex="1" parent="1kB6OxGuHtjADMAQv413-21">
          <mxGeometry x="1.5" y="8" width="15" height="10" as="geometry" />
        </mxCell>
        <mxCell id="1kB6OxGuHtjADMAQv413-54" value="&lt;font style=&quot;font-size: 7px;&quot; face=&quot;Times New Roman&quot;&gt;&lt;i style=&quot;&quot;&gt;l&lt;/i&gt;-bit OR-based Sub-Adder&lt;/font&gt;" style="text;html=1;align=center;verticalAlign=middle;whiteSpace=wrap;rounded=0;" vertex="1" parent="1kB6OxGuHtjADMAQv413-21">
          <mxGeometry x="12.38" y="73" width="85.25" as="geometry" />
        </mxCell>
        <mxCell id="1kB6OxGuHtjADMAQv413-68" value="" style="verticalLabelPosition=bottom;shadow=0;dashed=0;align=center;html=1;verticalAlign=top;shape=mxgraph.electrical.logic_gates.logic_gate;operation=or;rotation=90;" vertex="1" parent="1kB6OxGuHtjADMAQv413-21">
          <mxGeometry x="75.01000000000002" y="28" width="35.98" height="20" as="geometry" />
        </mxCell>
        <mxCell id="1kB6OxGuHtjADMAQv413-20" value="" style="endArrow=none;dashed=1;html=1;dashPattern=1 3;strokeWidth=2;rounded=0;" edge="1" parent="1kB6OxGuHtjADMAQv413-21">
          <mxGeometry width="50" height="50" relative="1" as="geometry">
            <mxPoint x="57.5" y="39.85999999999996" as="sourcePoint" />
            <mxPoint x="77.5" y="39.85999999999996" as="targetPoint" />
            <Array as="points">
              <mxPoint x="67.5" y="39.85999999999996" />
            </Array>
          </mxGeometry>
        </mxCell>
        <mxCell id="1kB6OxGuHtjADMAQv413-75" value="&lt;font style=&quot;font-size: 7px;&quot; face=&quot;Times New Roman&quot;&gt;&lt;font style=&quot;&quot;&gt;b&lt;sub style=&quot;&quot;&gt;0&lt;/sub&gt;&lt;/font&gt;&lt;/font&gt;" style="text;html=1;align=center;verticalAlign=middle;whiteSpace=wrap;rounded=0;" vertex="1" parent="1kB6OxGuHtjADMAQv413-21">
          <mxGeometry x="91.00999999999999" y="8" width="15" height="10" as="geometry" />
        </mxCell>
        <mxCell id="1kB6OxGuHtjADMAQv413-76" value="&lt;font style=&quot;font-size: 7px;&quot; face=&quot;Times New Roman&quot;&gt;&lt;font style=&quot;&quot;&gt;a&lt;sub&gt;0&lt;/sub&gt;&lt;/font&gt;&lt;/font&gt;" style="text;html=1;align=center;verticalAlign=middle;whiteSpace=wrap;rounded=0;" vertex="1" parent="1kB6OxGuHtjADMAQv413-21">
          <mxGeometry x="81.00999999999999" y="8" width="15" height="10" as="geometry" />
        </mxCell>
        <mxCell id="1kB6OxGuHtjADMAQv413-77" value="&lt;font style=&quot;&quot; face=&quot;Times New Roman&quot;&gt;&lt;font style=&quot;font-size: 7px;&quot;&gt;s&lt;sub style=&quot;&quot;&gt;0&lt;/sub&gt;&lt;/font&gt;&lt;/font&gt;" style="text;html=1;align=center;verticalAlign=middle;whiteSpace=wrap;rounded=0;" vertex="1" parent="1kB6OxGuHtjADMAQv413-21">
          <mxGeometry x="85.49999999999999" y="51" width="15" height="10" as="geometry" />
        </mxCell>
        <mxCell id="1kB6OxGuHtjADMAQv413-78" value="&lt;font style=&quot;&quot; face=&quot;Times New Roman&quot;&gt;&lt;font style=&quot;font-size: 7px;&quot;&gt;s&lt;/font&gt;&lt;font style=&quot;font-size: 5.83333px;&quot;&gt;&lt;i&gt;l&lt;/i&gt;-1&lt;/font&gt;&lt;/font&gt;" style="text;html=1;align=center;verticalAlign=middle;whiteSpace=wrap;rounded=0;" vertex="1" parent="1kB6OxGuHtjADMAQv413-21">
          <mxGeometry x="33.999999999999986" y="52" width="15" height="10" as="geometry" />
        </mxCell>
        <mxCell id="1kB6OxGuHtjADMAQv413-62" style="edgeStyle=orthogonalEdgeStyle;rounded=0;orthogonalLoop=1;jettySize=auto;html=1;exitX=0;exitY=0.5;exitDx=0;exitDy=0;" edge="1" parent="1" source="1kB6OxGuHtjADMAQv413-25">
          <mxGeometry relative="1" as="geometry">
            <mxPoint x="-120" y="288.90697674418607" as="targetPoint" />
          </mxGeometry>
        </mxCell>
        <mxCell id="1kB6OxGuHtjADMAQv413-25" value="" style="swimlane;startSize=0;" vertex="1" parent="1">
          <mxGeometry x="-90" y="264" width="85" height="50" as="geometry" />
        </mxCell>
        <mxCell id="1kB6OxGuHtjADMAQv413-56" value="&lt;font style=&quot;font-size: 7px;&quot;&gt;&lt;span style=&quot;font-family: &amp;quot;Times New Roman&amp;quot;;&quot;&gt;(n-&lt;/span&gt;&lt;i style=&quot;font-family: &amp;quot;Times New Roman&amp;quot;;&quot;&gt;l&lt;/i&gt;&lt;span style=&quot;font-family: &amp;quot;Times New Roman&amp;quot;;&quot;&gt;)-bit Accumulate Sub-Adder&lt;/span&gt;&lt;/font&gt;" style="text;html=1;align=center;verticalAlign=middle;whiteSpace=wrap;rounded=0;" vertex="1" parent="1kB6OxGuHtjADMAQv413-25">
          <mxGeometry x="10" y="18.5" width="70" height="15" as="geometry" />
        </mxCell>
        <mxCell id="1kB6OxGuHtjADMAQv413-29" value="&lt;font face=&quot;Times New Roman&quot; style=&quot;font-size: 7px;&quot;&gt;C&lt;sub&gt;in&lt;/sub&gt;&lt;/font&gt;" style="text;html=1;align=center;verticalAlign=middle;resizable=0;points=[];autosize=1;strokeColor=none;fillColor=none;" vertex="1" parent="1">
          <mxGeometry x="-6" y="266" width="30" height="30" as="geometry" />
        </mxCell>
        <mxCell id="1kB6OxGuHtjADMAQv413-30" value="" style="shape=flexArrow;endArrow=classic;html=1;rounded=0;endWidth=3.052434456928839;endSize=1.8123595505617975;width=5.833333333333333;strokeWidth=1;" edge="1" parent="1">
          <mxGeometry width="50" height="50" relative="1" as="geometry">
            <mxPoint x="-47.82" y="314" as="sourcePoint" />
            <mxPoint x="-47.18" y="350" as="targetPoint" />
            <Array as="points">
              <mxPoint x="-47.68" y="324" />
            </Array>
          </mxGeometry>
        </mxCell>
        <mxCell id="1kB6OxGuHtjADMAQv413-31" value="" style="shape=flexArrow;endArrow=classic;html=1;rounded=0;endWidth=3.052434456928839;endSize=1.8123595505617975;width=5.833333333333333;strokeWidth=1;" edge="1" parent="1">
          <mxGeometry width="50" height="50" relative="1" as="geometry">
            <mxPoint x="87.99999999999999" y="330" as="sourcePoint" />
            <mxPoint x="88.13999999999999" y="350" as="targetPoint" />
            <Array as="points">
              <mxPoint x="88.13999999999999" y="340" />
            </Array>
          </mxGeometry>
        </mxCell>
        <mxCell id="1kB6OxGuHtjADMAQv413-32" value="" style="shape=flexArrow;endArrow=classic;html=1;rounded=0;endWidth=3.052434456928839;endSize=1.8123595505617975;width=5.833333333333333;strokeWidth=1;" edge="1" parent="1">
          <mxGeometry width="50" height="50" relative="1" as="geometry">
            <mxPoint x="-60.350000000000016" y="244" as="sourcePoint" />
            <mxPoint x="-60.21" y="264" as="targetPoint" />
            <Array as="points">
              <mxPoint x="-60.21" y="254" />
            </Array>
          </mxGeometry>
        </mxCell>
        <mxCell id="1kB6OxGuHtjADMAQv413-33" value="" style="shape=flexArrow;endArrow=classic;html=1;rounded=0;endWidth=3.052434456928839;endSize=1.8123595505617975;width=5.833333333333333;strokeWidth=1;" edge="1" parent="1">
          <mxGeometry width="50" height="50" relative="1" as="geometry">
            <mxPoint x="-34.85" y="244" as="sourcePoint" />
            <mxPoint x="-34.71" y="264" as="targetPoint" />
            <Array as="points">
              <mxPoint x="-34.71" y="254" />
            </Array>
          </mxGeometry>
        </mxCell>
        <mxCell id="1kB6OxGuHtjADMAQv413-35" value="" style="shape=flexArrow;endArrow=classic;html=1;rounded=0;endWidth=3.052434456928839;endSize=1.8123595505617975;width=5.833333333333333;strokeWidth=1;" edge="1" parent="1">
          <mxGeometry width="50" height="50" relative="1" as="geometry">
            <mxPoint x="73.25999999999999" y="230" as="sourcePoint" />
            <mxPoint x="73.4" y="250" as="targetPoint" />
            <Array as="points">
              <mxPoint x="73.4" y="240" />
            </Array>
          </mxGeometry>
        </mxCell>
        <mxCell id="1kB6OxGuHtjADMAQv413-36" value="" style="shape=flexArrow;endArrow=classic;html=1;rounded=0;endWidth=3.052434456928839;endSize=1.8123595505617975;width=5.833333333333333;strokeWidth=1;" edge="1" parent="1">
          <mxGeometry width="50" height="50" relative="1" as="geometry">
            <mxPoint x="98.4" y="230" as="sourcePoint" />
            <mxPoint x="98.53999999999999" y="250" as="targetPoint" />
            <Array as="points">
              <mxPoint x="98.53999999999999" y="240" />
            </Array>
          </mxGeometry>
        </mxCell>
        <mxCell id="1kB6OxGuHtjADMAQv413-59" value="&lt;font face=&quot;Times New Roman&quot; style=&quot;font-size: 7px;&quot;&gt;C&lt;sub&gt;out&lt;/sub&gt;&lt;/font&gt;" style="text;html=1;align=center;verticalAlign=middle;resizable=0;points=[];autosize=1;strokeColor=none;fillColor=none;" vertex="1" parent="1">
          <mxGeometry x="-122" y="266" width="40" height="30" as="geometry" />
        </mxCell>
        <mxCell id="1kB6OxGuHtjADMAQv413-63" value="&lt;font style=&quot;font-size: 7px;&quot; face=&quot;Times New Roman&quot;&gt;&lt;font style=&quot;&quot;&gt;S&lt;/font&gt;&lt;font style=&quot;&quot;&gt;&lt;sub&gt;&lt;i style=&quot;&quot;&gt;l&lt;/i&gt;-1:0&lt;/sub&gt;&lt;/font&gt;&lt;/font&gt;" style="text;html=1;align=center;verticalAlign=middle;whiteSpace=wrap;rounded=0;" vertex="1" parent="1">
          <mxGeometry x="77.75" y="346" width="19.5" height="10" as="geometry" />
        </mxCell>
        <mxCell id="1kB6OxGuHtjADMAQv413-64" value="&lt;font style=&quot;font-size: 7px;&quot; face=&quot;Times New Roman&quot;&gt;&lt;font style=&quot;&quot;&gt;S&lt;/font&gt;&lt;font style=&quot;&quot;&gt;&lt;sub&gt;&lt;i style=&quot;&quot;&gt;l&lt;/i&gt;-1:1&lt;/sub&gt;&lt;/font&gt;&lt;/font&gt;" style="text;html=1;align=center;verticalAlign=middle;whiteSpace=wrap;rounded=0;" vertex="1" parent="1">
          <mxGeometry x="-60" y="346" width="25" height="10" as="geometry" />
        </mxCell>
        <mxCell id="1kB6OxGuHtjADMAQv413-66" value="&lt;font style=&quot;font-size: 7px;&quot; face=&quot;Times New Roman&quot;&gt;&lt;font style=&quot;&quot;&gt;b&lt;/font&gt;&lt;font style=&quot;&quot;&gt;&lt;sub&gt;&lt;i style=&quot;&quot;&gt;n&lt;/i&gt;-1:1&lt;/sub&gt;&lt;/font&gt;&lt;/font&gt;" style="text;html=1;align=center;verticalAlign=middle;whiteSpace=wrap;rounded=0;" vertex="1" parent="1">
          <mxGeometry x="-70" y="232" width="20" height="10" as="geometry" />
        </mxCell>
        <mxCell id="1kB6OxGuHtjADMAQv413-72" value="&lt;font style=&quot;font-size: 7px;&quot; face=&quot;Times New Roman&quot;&gt;&lt;font style=&quot;&quot;&gt;a&lt;/font&gt;&lt;font style=&quot;&quot;&gt;&lt;sub&gt;&lt;i style=&quot;&quot;&gt;n&lt;/i&gt;-1:1&lt;/sub&gt;&lt;/font&gt;&lt;/font&gt;" style="text;html=1;align=center;verticalAlign=middle;whiteSpace=wrap;rounded=0;" vertex="1" parent="1">
          <mxGeometry x="-44" y="232" width="20" height="10" as="geometry" />
        </mxCell>
        <mxCell id="1kB6OxGuHtjADMAQv413-73" value="&lt;font style=&quot;font-size: 7px;&quot; face=&quot;Times New Roman&quot;&gt;&lt;font style=&quot;&quot;&gt;b&lt;/font&gt;&lt;font style=&quot;&quot;&gt;&lt;sub&gt;&lt;i style=&quot;&quot;&gt;l&lt;/i&gt;-1:0&lt;/sub&gt;&lt;/font&gt;&lt;/font&gt;" style="text;html=1;align=center;verticalAlign=middle;whiteSpace=wrap;rounded=0;" vertex="1" parent="1">
          <mxGeometry x="63.870000000000005" y="218" width="20" height="10" as="geometry" />
        </mxCell>
        <mxCell id="1kB6OxGuHtjADMAQv413-74" value="&lt;font style=&quot;font-size: 7px;&quot; face=&quot;Times New Roman&quot;&gt;&lt;font style=&quot;&quot;&gt;a&lt;/font&gt;&lt;font style=&quot;&quot;&gt;&lt;sub&gt;&lt;i style=&quot;&quot;&gt;l&lt;/i&gt;-1:0&lt;/sub&gt;&lt;/font&gt;&lt;/font&gt;" style="text;html=1;align=center;verticalAlign=middle;whiteSpace=wrap;rounded=0;" vertex="1" parent="1">
          <mxGeometry x="89.87" y="218" width="20" height="10" as="geometry" />
        </mxCell>
      </root>
    </mxGraphModel>
  </diagram>
</mxfile>
